<svg width="171" height="193" viewBox="0 0 171 193" fill="none" xmlns="http://www.w3.org/2000/svg">
<path d="M85.3499 111C93.4685 111 100.05 104.418 100.05 96.2996C100.05 88.181 93.4685 81.5996 85.3499 81.5996C77.2313 81.5996 70.6499 88.181 70.6499 96.2996C70.6499 104.418 77.2313 111 85.3499 111Z" fill="white"/>
<path d="M166.584 128.998L159.829 125.098L155.629 132.373L144.717 126.073L154.917 108.407L148.162 104.507L137.962 122.174L127.05 115.874L134.25 103.403L127.495 99.503L120.295 111.974L111.218 106.733C112.523 103.508 113.249 99.988 113.249 96.301C113.249 92.614 112.523 89.094 111.218 85.869L120.295 80.628L127.495 93.099L134.25 89.199L127.05 76.728L137.962 70.428L148.162 88.095L154.917 84.195L144.717 66.529L155.629 60.229L159.829 67.504L166.584 63.604L162.384 56.329L170.698 51.529L166.798 44.774L158.484 49.574L154.284 42.299L147.529 46.199L151.729 53.473L140.817 59.773L130.617 42.106L123.862 46.006L134.062 63.673L123.15 69.973L115.95 57.502L109.195 61.402L116.395 73.872L107.307 79.119C102.955 73.569 96.553 69.705 89.249 68.678V58.2H103.649V50.4H89.249V37.8H109.649V30H89.249V17.4H97.649V9.6H89.249V0H81.449V9.6H73.049V17.4H81.449V30H61.049V37.8H81.449V50.4H67.049V58.2H81.449V68.678C74.144 69.705 67.742 73.569 63.391 79.119L54.303 73.872L61.503 61.402L54.748 57.502L47.548 69.973L36.636 63.673L46.836 46.006L40.081 42.106L29.881 59.773L18.969 53.473L23.169 46.199L16.414 42.299L12.214 49.574L3.9 44.774L0 51.529L8.314 56.329L4.114 63.604L10.869 67.504L15.069 60.229L25.981 66.529L15.781 84.195L22.536 88.095L32.736 70.428L43.648 76.728L36.448 89.199L43.203 93.099L50.403 80.628L59.48 85.869C58.175 89.094 57.449 92.614 57.449 96.301C57.449 99.988 58.175 103.508 59.48 106.733L50.403 111.974L43.203 99.503L36.448 103.403L43.648 115.874L32.736 122.174L22.536 104.507L15.781 108.407L25.981 126.073L15.069 132.373L10.869 125.098L4.114 128.998L8.314 136.273L0 141.073L3.9 147.828L12.214 143.028L16.414 150.302L23.169 146.402L18.969 139.128L29.881 132.828L40.081 150.495L46.836 146.595L36.636 128.928L47.548 122.628L54.748 135.099L61.503 131.199L54.303 118.729L63.391 113.482C67.743 119.032 74.145 122.896 81.449 123.923V134.4H67.049V142.2H81.449V154.8H61.049V162.6H81.449V175.2H73.049V183H81.449V192.6H89.249V183H97.649V175.2H89.249V162.6H109.649V154.8H89.249V142.2H103.649V134.4H89.249V123.922C96.554 122.895 102.956 119.031 107.307 113.481L116.395 118.728L109.195 131.198L115.95 135.098L123.15 122.627L134.062 128.927L123.862 146.594L130.617 150.494L140.817 132.827L151.729 139.127L147.529 146.401L154.284 150.301L158.484 143.027L166.798 147.827L170.698 141.072L162.384 136.272L166.584 128.998ZM105.45 96.3C105.45 107.383 96.433 116.4 85.35 116.4C74.267 116.4 65.25 107.383 65.25 96.3C65.25 85.217 74.267 76.2 85.35 76.2C96.433 76.2 105.45 85.217 105.45 96.3Z" fill="white"/>
</svg>
