<svg width="199" height="176" viewBox="0 0 199 176" fill="none" xmlns="http://www.w3.org/2000/svg">
<path d="M42.1099 38.321L41.8199 38.244L40.1108 44.619L76.2369 54.3L90.5518 79.093L96.2669 75.793L81.9518 50.999L91.5549 15.164L91.6319 14.874L85.2569 13.166L77.2849 42.916L68.4518 27.616L74.4599 5.19299L68.0839 3.48499L63.7849 19.532L52.5079 0L46.7919 3.29999L58.0688 22.831L42.0229 18.532L40.3138 24.907L62.7369 30.916L71.5699 46.215L42.1099 38.321Z" fill="white"/>
<path d="M87.52 90.9474V84.3463H58.889L32.443 57.9004L27.776 62.5674L49.555 84.3463H31.887L15.474 67.9324L10.807 72.5994L22.554 84.3463H0V90.9474H22.553L10.807 102.692L15.474 107.359L31.887 90.9474H49.554L27.776 112.725L32.443 117.391L58.889 90.9474H87.52Z" fill="white"/>
<path d="M96.1169 99.7583L96.2669 99.4983L90.5518 96.1982L76.2369 120.993L40.1108 130.673L41.8199 137.048L71.5689 129.077L62.7358 144.376L40.3138 150.384L42.0219 156.759L58.0688 152.46L46.9419 171.732L46.7919 171.992L52.5079 175.292L63.7849 155.76L68.0839 171.807L74.4599 170.099L68.4518 147.675L77.2849 132.376L85.2569 162.126L91.6319 160.418L81.9518 124.292L96.1169 99.7583Z" fill="white"/>
<path d="M156.49 136.97L156.78 137.048L158.488 130.673L122.363 120.993L108.198 96.4583L108.048 96.1982L102.333 99.4983L116.648 124.292L106.968 160.418L113.343 162.126L121.315 132.376L130.148 147.675L124.14 170.099L130.516 171.807L134.815 155.76L145.942 175.032L146.092 175.292L151.808 171.992L140.531 152.46L156.288 156.681L156.578 156.759L158.286 150.384L135.864 144.377L127.03 129.077L156.49 136.97Z" fill="white"/>
<path d="M198.6 84.3463H176.046L187.793 72.5994L183.126 67.9324L166.713 84.3463H149.045L170.824 62.5674L166.157 57.9004L139.711 84.3463H111.08V90.9474H139.711L166.157 117.391L170.824 112.725L149.045 90.9474H166.713L183.126 107.359L187.793 102.692L176.047 90.9474H198.6V84.3463Z" fill="white"/>
<path d="M102.333 75.793L108.048 79.093L122.363 54.299L158.199 44.697L158.488 44.619L156.78 38.244L127.03 46.215L135.864 30.915L158.286 24.907L156.577 18.532L140.531 22.831L151.808 3.29999L146.092 0L134.815 19.532L130.516 3.48499L124.14 5.19299L130.148 27.617L121.315 42.916L113.421 13.455L113.343 13.166L106.968 14.874L116.648 50.999L102.333 75.793Z" fill="white"/>
<path d="M99.2938 77.4902C97.5198 77.4902 95.7658 77.9613 94.2228 78.8523C91.8738 80.2083 90.1939 82.3982 89.4909 85.0182C88.7899 87.6382 89.1499 90.3753 90.5059 92.7233C92.3139 95.8553 95.6858 97.8022 99.3058 97.8022C101.081 97.8022 102.835 97.3312 104.377 96.4402C106.727 95.0842 108.407 92.8943 109.11 90.2743C109.811 87.6543 109.451 84.9172 108.095 82.5682C106.285 79.4362 102.914 77.4902 99.2938 77.4902ZM95.8659 86.7262C96.1109 85.8082 96.6999 85.0423 97.5219 84.5673C98.0629 84.2553 98.6749 84.0902 99.2929 84.0902C100.562 84.0902 101.745 84.7723 102.378 85.8683C102.853 86.6903 102.979 87.6483 102.733 88.5663C102.487 89.4843 101.899 90.2503 101.077 90.7233C100.536 91.0363 99.9228 91.2013 99.3058 91.2013C98.0368 91.2013 96.8558 90.5192 96.2218 89.4222C95.7468 88.6022 95.6209 87.6432 95.8659 86.7262Z" fill="white"/>
<path d="M99.2999 74.7514L113.43 51.2004L99.2999 27.6484L85.1699 51.1994L99.2999 74.7514ZM99.2999 61.9224L92.866 51.1994L99.2999 40.4764L105.734 51.1994L99.2999 61.9224Z" fill="white"/>
<path d="M60.6708 81.6597L88.1319 81.1976L74.8008 57.1846L47.3398 57.6456L60.6708 81.6597ZM64.5198 74.9937L58.4499 64.0607L70.9528 63.8506L77.0229 74.7826L64.5198 74.9937Z" fill="white"/>
<path d="M60.6708 93.6309L47.3398 117.644L74.6209 118.102L74.8008 118.106L88.1319 94.0929L60.8509 93.6349L60.6708 93.6309ZM58.4499 111.229L64.5198 100.297L77.0229 100.508L70.9528 111.44L58.4499 111.229Z" fill="white"/>
<path d="M99.2999 100.541L85.1699 124.092L99.2999 147.644L113.43 124.092L99.2999 100.541ZM99.2999 113.37L105.734 124.092L99.2999 134.815L92.866 124.092L99.2999 113.37Z" fill="white"/>
<path d="M123.798 118.106L151.259 117.644L138.016 93.7888L137.929 93.6309L110.468 94.0929L123.711 117.948L123.798 118.106ZM134.08 100.297L140.15 111.229L127.647 111.44L121.577 100.508L134.08 100.297Z" fill="white"/>
<path d="M137.928 81.6597L151.259 57.6456L123.798 57.1846L110.467 81.1976L137.928 81.6597ZM140.15 64.0607L134.08 74.9937L121.577 74.7826L127.647 63.8506L140.15 64.0607Z" fill="white"/>
</svg>
