<svg width="512" height="406" viewBox="0 0 512 406" fill="none" xmlns="http://www.w3.org/2000/svg">
<path fill-rule="evenodd" clip-rule="evenodd" d="M409 1.5668C404.473 3.5198 397.416 10.3878 394.704 15.4778C393.161 18.3758 392.573 21.2678 392.571 25.9778C392.567 33.5258 394.022 36.8548 400.879 44.9778C409.549 55.2488 412.711 59.4628 419.264 69.4778C439.158 99.8818 451.83 133.137 457.638 170.181C460.128 186.055 460.138 222.796 457.657 239.478C451.065 283.819 434.747 322.368 407.547 357.853C398.736 369.348 396.992 373.049 397.022 380.196C397.05 386.864 399.624 392.602 405 397.978C410.464 403.442 416.102 405.934 423 405.934C433.391 405.934 438.079 402.29 452.341 383.127C484.577 339.812 505.879 283.546 509.756 231.478L510.5 221.478L511.036 238.978C511.331 248.603 511.571 233.078 511.57 204.478C511.569 175.878 511.328 160.803 511.034 170.978C510.5 189.464 510.499 189.47 509.752 179.342C506.271 132.135 488.115 80.8548 460.014 38.8578C447.37 19.9618 435.061 5.6858 428.664 2.4978C422.765 -0.442204 414.556 -0.831204 409 1.5668ZM226.733 26.1638C220.6 27.4498 227.074 22.3298 133.797 99.6568L90.094 135.887L52.797 136.182L15.5 136.478L11 138.991C8.32 140.488 5.186 143.466 3.25 146.354L0 151.204V205.131C0 256.172 0.102 259.256 1.903 262.768C4.367 267.573 7.432 270.37 13 272.894C17.26 274.825 19.427 274.935 53.602 274.956L89.704 274.978L124.602 303.887C143.796 319.788 172.325 343.445 188 356.458C203.675 369.472 218.52 381.318 220.988 382.783C229.894 388.069 243.33 385.478 249.592 377.268C255.197 369.92 254.912 379.117 254.912 205.478C254.912 32.7908 255.142 40.6408 249.897 34.2108C244.606 27.7238 235.078 24.4138 226.733 26.1638ZM334.326 80.0468C328.297 81.2038 325.039 83.1598 319.777 88.7848C316.427 92.3668 314.645 95.3908 313.438 99.5438C310.9 108.275 312.346 113.067 321.417 125.978C339.294 151.422 347.179 175.73 347.206 205.478C347.23 232.402 339.686 258.091 325.475 279.478C318.027 290.686 316.999 293.202 317.009 300.188C317.017 305.309 317.565 307.431 319.959 311.604C325.059 320.497 333.845 325.978 343 325.978C352.931 325.978 358.761 321.661 367.915 307.529C379.527 289.604 388.98 267.748 393.492 248.392C399.487 222.675 399.509 188.375 393.549 162.808C387.577 137.194 371.593 104.976 356.564 88.2598C350.353 81.3518 342.55 78.4698 334.326 80.0468Z" fill="white"/>
</svg>
